# AST/ASF file generated using VICON BodyLanguage
# -----------------------------------------------
:version 1.10
:name VICON
:units
  mass 1.0
  length 0.45
  angle deg
:documentation
   .ast/.asf automatically generated from VICON data using
   VICON BodyBuilder and BodyLanguage model FoxedUp or BRILLIANT.MOD
:root
   order TX TY TZ RX RY RZ
   axis XYZ
   position 0 0 0  
   orientation 0 0 0 
:bonedata
  begin
     id 1 
     name lhipjoint
     direction 0.523584 -0.783993 0.333487 
     length 2.44404 
     axis 0 0 0  XYZ
  end
  begin
     id 2 
     name lfemur
     direction 0.34202 -0.939693 0  
     length 7.29523  
     axis 0 0 20  XYZ
    dof rx ry rz
    limits (-160.0 20.0)
           (-70.0 70.0)
           (-60.0 70.0)
  end
  begin
     id 3 
     name ltibia
     direction 0.34215 -0.939645 0   
     length 7.81194   
     axis 0 0 20   XYZ
    dof rx
    limits (-10.0 170.0)
  end
  begin
     id 4 
     name lfoot
     direction 0.0941847 -0.25877 0.961336   
     length 2.41437   
     axis -90 7.62852e-016 20   XYZ
    dof rx rz
    limits (-45.0 90.0)
           (-70.0 20.0)
  end
  begin
     id 5 
     name ltoes
     direction 1.53526e-011 -4.21768e-011 1   
     length 1.2048   
     axis -90 7.62852e-016 20   XYZ
    dof rx
    limits (-90.0 20.0)
  end
  begin
     id 6 
     name rhipjoint
     direction -0.46599 -0.814191 0.346332   
     length 2.35339  
     axis 0 0 0  XYZ 
  end
  begin
     id 7 
     name rfemur
     direction -0.34202 -0.939693 0   
     length 7.34966   
     axis 0 0 -20   XYZ
    dof rx ry rz
    limits (-160.0 20.0)
           (-70.0 70.0)
           (-70.0 60.0)
  end
  begin
     id 8 
     name rtibia
     direction -0.34202 -0.939693 0   
     length 7.89934   
     axis 0 0 -20   XYZ
    dof rx
    limits (-10.0 170.0)
 end
 begin
     id 9 
     name rfoot
     direction -0.0975468 -0.268008 0.958466   
     length 2.27725  
     axis -90 -7.62852e-016 -20   XYZ
    dof rx rz
    limits (-45.0 90.0)
           (-20.0 70.0)
  end
  begin
     id 10 
     name rtoes
     direction -1.53563e-011 -4.22022e-011 1   
     length 1.13683   
     axis -90 -7.62852e-016 -20   XYZ
    dof rx
    limits (-90.0 20.0)
  end
  begin
     id 11 
     name lowerback
     direction -0.00456414 0.999242 -0.0386661   
     length 2.16968   
     axis 0 0 0   XYZ
    dof rx ry rz
    limits (-20.0 45.0)
           (-30.0 30.0)
           (-30.0 30.0)
  end
  begin
     id 12 
     name upperback
     direction 0.0297078 0.998988 0.0337799   
     length 2.15674   
     axis 0 0 0   XYZ
    dof rx ry rz
    limits (-20.0 45.0)
           (-30.0 30.0)
           (-30.0 30.0)
  end
  begin
     id 13 
     name thorax
     direction 0.0309305 0.998202 0.0513506   
     length 2.16319   
     axis 0 0 0   XYZ
    dof rx ry rz
    limits (-20.0 45.0)
           (-30.0 30.0)
           (-30.0 30.0)
  end
  begin
     id 14 
     name lowerneck
     direction -0.103039 0.983474 0.148872   
     length 1.64318   
     axis 0 0 0   XYZ
    dof rx ry rz
    limits (-20.0 45.0)
           (-30.0 30.0)
           (-30.0 30.0)
  end
  begin
     id 15 
     name upperneck
     direction 0.128124 0.971079 -0.201469   
     length 1.68242   
     axis 0 0 0   XYZ
    dof rx ry rz
    limits (-20.0 45.0)
           (-30.0 30.0)
           (-30.0 30.0)
  end
  begin
     id 16
     name head
     direction 0.0496365 0.994919 -0.0875941  
     length 1.70108  
     axis 0 0 0   XYZ
    dof rx ry rz
    limits (-20.0 45.0)
           (-30.0 30.0)
           (-30.0 30.0)
  end
  begin
     id 17 
     name lclavicle
     direction 0.887148 0.430222 -0.166967  
     length 3.25763  
     axis 0 0 0   XYZ
    dof ry rz
    limits (-20.0 10.0)
           (0.0 20.0)
  end
  begin
     id 18 
     name lhumerus
     direction 1 -4.48962e-011 1.92156e-027   
     length 5.10755   
     axis 180 -30 -90   XYZ
    dof rx ry rz
    limits (-60.0 90.0)
           (-90.0 90.0)
           (-90.0 90.0)
  end
  begin
     id 19
     name lradius
     direction 1 -4.48958e-011 7.10963e-027   
     length 3.36253   
     axis 180 -30 -90   XYZ
    dof rx
    limits (-10.0 170.0)
  end
  begin
     id 20
     name lwrist
     direction 1 -4.48946e-011 1.82396e-026   
     length 1.68127   
     axis -1.15222e-014 90 90   XYZ
    dof ry
    limits (-180.0 0.0)
 end
  begin
     id 21 
     name lhand
     direction 1 -4.48919e-011 3.64759e-026   
     length 0.619088   
     axis -2.32787e-014 90 90   XYZ
    dof rx rz
    limits (-90.0 90.0)
           (-45.0 45.0)
  end
  begin
     id 22 
     name lfingers
     direction 1 -4.49012e-011 7.29744e-026   
     length 0.499125   
     axis -4.6558e-014 90 90   XYZ
    dof rx
    limits (0.0 90.0)
  end
  begin
     id 23
     name lthumb
     direction 0.707107 -6.35028e-011 0.707107   
     length 0.716646   
     axis -90 45 3.78391e-014   XYZ
    dof rx rz
    limits (-45.0 45.0)
           (-45.0 45.0)
  end
  begin
     id 24 
     name rclavicle
     direction -0.82886 0.533198 -0.169384   
     length 3.20647  
     axis 0 0 0   XYZ 
    dof ry rz
    limits (-10.0 20.0)
           (-20.0 0.0)
  end
  begin
     id 25 
     name rhumerus
     direction -1 -4.48973e-011 3.06863e-027  
     length 5.27387   
     axis 180 30 90   XYZ
    dof rx ry rz
    limits (-90.0 60.0)
           (-90.0 90.0)
           (-90.0 90.0)
  end
  begin
     id 26 
     name rradius
     direction -1 -4.48988e-011 9.4797e-027   
     length 3.40144   
     axis 180 30 90   XYZ
    dof rx
    limits (-10.0 170.0)
  end
  begin
     id 27 
     name rwrist
     direction -1 -4.48897e-011 1.82366e-026   
     length 1.70072   
     axis -1.15222e-014 -90 -90   XYZ
    dof ry
    limits (-180.0 0.0)
  end
  begin
     id 28
     name rhand
     direction -1 -4.48965e-011 3.64815e-026   
     length 0.742821   
     axis -2.32787e-014 -90 -90   XYZ
    dof rx rz
    limits (-90.0 90.0)
           (-45.0 45.0)
  end
  begin
     id 29
     name rfingers
     direction -1 -4.49016e-011 7.29754e-026   
     length 0.598881   
     axis -4.6558e-014 -90 -90   XYZ
    dof rx
    limits (0.0 90.0)
  end
  begin
     id 30
     name rthumb
     direction -0.707107 -6.3488e-011 0.707107   
     length 0.859877   
     axis -90 -45 -3.78391e-014   XYZ
    dof rx rz
    limits (-45.0 45.0)
           (-45.0 45.0)
  end
:hierarchy
  begin
    root lhipjoint rhipjoint lowerback
    lhipjoint lfemur
    lfemur ltibia
    ltibia lfoot
    lfoot ltoes
    rhipjoint rfemur
    rfemur rtibia
    rtibia rfoot
    rfoot rtoes
    lowerback upperback
    upperback thorax
    thorax lowerneck lclavicle rclavicle
    lowerneck upperneck
    upperneck head
    lclavicle lhumerus
    lhumerus lradius
    lradius lwrist
    lwrist lhand lthumb
    lhand lfingers
    rclavicle rhumerus
    rhumerus rradius
    rradius rwrist
    rwrist rhand rthumb
    rhand rfingers
  end

#!OML:ASF F:\Work\Patient Classification 1\justin\Session 1\justin.ASF
:FULLY-SPECIFIED
:DEGREES
696
root 0.789527 15.253 15.6788 150.437 -78.449 -179.697
lowerback 23.1134 1.13253 -0.556587
upperback 12.1213 0.159163 3.64993
thorax 0.398345 -0.64326 4.20402
lowerneck -20.1295 4.66237 -10.2405
upperneck 18.1205 8.74724 3.03961
head 8.37044 3.70098 3.76113
rclavicle -2.98177e-016 -4.53229e-014
rhumerus -31.4445 25.916 -90.1833
rradius 74.901
rwrist 19.6318
rhand -17.6068 23.9669
rfingers 7.12502
rthumb 8.64983 -5.83588
lclavicle -2.98177e-016 -4.53229e-014
lhumerus -33.0655 -8.56676 98.9863
lradius 72.2453
lwrist -8.16951
lhand -28.3112 20.6881
lfingers 7.12502
lthumb -1.68644 50.6611
rfemur -29.9567 -21.0872 14.468
rtibia 95.9072
rfoot 12.5232 -0.140558
rtoes 8.48081
lfemur -26.3598 23.3559 -8.22023
ltibia 98.0274
lfoot 9.79701 -2.98259
ltoes -7.07144
697
root 0.778369 15.2525 15.6762 149.923 -78.4028 -179.165
lowerback 22.8159 1.17929 -0.682731
upperback 12.3433 0.162253 3.88825
thorax 0.790924 -0.677317 4.52841
lowerneck -20.2671 4.93102 -10.2892
upperneck 17.9813 9.1988 2.76615
head 8.32852 3.88476 3.72488
rclavicle -1.98785e-015 3.89618e-014
rhumerus -31.0043 25.7205 -89.8489
rradius 74.8956
rwrist 19.3458
rhand -17.4307 23.8601
rfingers 7.12502
rthumb 8.81972 -5.93563
lclavicle -1.98785e-015 3.89618e-014
lhumerus -32.561 -8.75003 99.0575
lradius 72.1773
lwrist -7.83552
lhand -28.2796 21.0818
lfingers 7.12502
lthumb -1.65599 51.0552
rfemur -29.9411 -21.2121 14.4641
rtibia 96.0259
rfoot 11.7421 0.447748
rtoes 7.41336
lfemur -26.3542 23.1478 -8.17373
ltibia 98.0626
lfoot 9.74315 -3.20102
ltoes -6.62015
698
root 0.768366 15.2419 15.6751 149.828 -78.4515 -179.078
lowerback 22.6593 1.28872 -0.640641
upperback 12.4745 0.298218 3.94411
thorax 1.00166 -0.617579 4.5326
lowerneck -20.1943 5.2014 -9.98788
upperneck 17.9115 9.53655 2.44219
head 8.30148 4.03094 3.60129
rclavicle 6.06293e-015 -1.27222e-014
rhumerus -30.8866 24.7734 -89.8107
rradius 74.9188
rwrist 19.4662
rhand -17.5652 24.025
rfingers 7.12502
rthumb 8.6899 -5.77614
lclavicle 6.06293e-015 -1.27222e-014
lhumerus -32.2932 -9.68383 99.0111
lradius 72.1045
lwrist -7.02407
lhand -28.5084 21.7272
lfingers 7.12502
lthumb -1.87693 51.6987
rfemur -29.9705 -21.502 14.1992
rtibia 96.2628
rfoot 11.281 1.33468
rtoes 6.14661
lfemur -26.4242 22.9395 -8.25347
ltibia 98.1416
lfoot 9.68303 -3.42797
ltoes -6.7529
699
root 0.758648 15.221 15.676 150.434 -78.6005 -179.726
lowerback 22.6809 1.32175 -0.661803
upperback 12.5497 0.325605 4.00302
thorax 1.0729 -0.613743 4.60295
lowerneck -20.0569 5.44093 -10.1043
upperneck 17.7595 9.93579 2.13977
head 8.21327 4.1837 3.54832
rclavicle -4.27387e-015 2.70347e-014
rhumerus -30.7546 24.4471 -89.2798
rradius 75.0608
rwrist 19.4638
rhand -17.7559 24.3853
rfingers 7.12502
rthumb 8.50587 -5.42337
lclavicle -4.27387e-015 2.70347e-014
lhumerus -31.9944 -10.3289 99.0843
lradius 71.8983
lwrist -6.32052
lhand -28.7539 22.5424
lfingers 7.12502
lthumb -2.11404 52.5116
rfemur -30.075 -21.8277 13.6718
rtibia 96.6144
rfoot 10.9462 2.23926
rtoes 6.42563
lfemur -26.5068 22.8474 -8.61337
ltibia 98.2419
lfoot 9.46795 -3.58712
ltoes -9.27575
700
root 0.749119 15.2078 15.675 151.282 -78.7204 -180.609
lowerback 22.6931 1.2648 -0.847452
upperback 12.6375 0.195598 4.1544
thorax 1.17776 -0.707133 4.90203
lowerneck -19.985 5.67049 -10.6458
upperneck 17.5093 10.4188 1.95782
head 8.07032 4.36675 3.60488
rclavicle 1.33186e-014 -1.59028e-014
rhumerus -30.4328 25.8477 -88.0218
rradius 75.4574
rwrist 18.1093
rhand -17.9891 24.2695
rfingers 7.12502
rthumb 8.28083 -5.54819
lclavicle 1.33186e-014 -1.59028e-014
lhumerus -31.564 -10.3806 99.2249
lradius 71.5922
lwrist -5.83033
lhand -28.7918 22.9405
lfingers 7.12502
lthumb -2.15066 52.9094
rfemur -30.1519 -21.9977 13.2143
rtibia 96.9165
rfoot 10.4617 3.02189
rtoes 7.93188
lfemur -26.5325 22.7642 -9.00123
ltibia 98.2793
lfoot 9.35102 -3.43504
ltoes -11.2017
701
root 0.74109 15.2071 15.6685 151.484 -78.8186 -180.866
lowerback 22.7149 1.40579 -0.76454
upperback 12.6996 0.391818 4.12237
thorax 1.21782 -0.60414 4.77773
lowerneck -19.8535 5.78312 -10.1328
upperneck 17.4101 10.4785 1.60124
head 8.05921 4.39511 3.40826
rclavicle 4.35338e-014 2.8625e-014
rhumerus -30.5629 25.4657 -88.1182
rradius 75.534
rwrist 17.7287
rhand -18.733 23.6563
rfingers 7.12502
rthumb 7.56282 -6.18849
lclavicle 4.35338e-014 2.8625e-014
lhumerus -31.3323 -11.588 99.1316
lradius 71.2667
lwrist -5.0581
lhand -28.5996 22.9529
lfingers 7.12502
lthumb -1.96505 52.9236
rfemur -30.0249 -22.0177 13.0364
rtibia 97.0677
rfoot 9.80679 3.57654
rtoes 7.67815
lfemur -26.4677 22.6349 -9.06741
ltibia 98.2646
lfoot 9.39636 -3.24307
ltoes -10.474
702
root 0.734863 15.2187 15.6635 151.605 -78.9462 -180.99
lowerback 22.7008 2.05855 -0.129211
upperback 12.7415 1.39177 3.82046
thorax 1.19942 -0.0366576 3.87243
lowerneck -19.8417 5.44983 -8.39564
upperneck 17.609 9.62064 1.22281
head 8.28089 4.05634 2.94107
rclavicle 2.93207e-014 1.03368e-014
rhumerus -30.2626 20.5484 -87.5607
rradius 75.1687
rwrist 22.2286
rhand -15.8432 26.4825
rfingers 7.12502
rthumb 10.3514 -3.24269
lclavicle 2.93207e-014 1.03368e-014
lhumerus -31.2684 -15.2903 99.0566
lradius 70.8652
lwrist -3.94029
lhand -28.3184 23.0277
lfingers 7.12502
lthumb -1.69342 53.0007
rfemur -29.9065 -21.9712 12.9026
rtibia 97.1393
rfoot 9.18039 3.99753
rtoes 4.25001
lfemur -26.4884 22.261 -9.12342
ltibia 98.2171
lfoot 9.55482 -2.89652
ltoes -7.67229
703
root 0.723867 15.2379 15.6636 151.844 -78.9259 -181.221
lowerback 22.5752 2.17093 0.00468246
upperback 12.7471 1.56968 3.87076
thorax 1.2567 0.0615132 3.81314
lowerneck -19.8138 5.55151 -8.59294
upperneck 17.7983 9.78345 1.40129
head 8.31095 4.13105 3.05313
rclavicle 1.49089e-015 4.05521e-014
rhumerus -31.0646 21.2784 -88.6527
rradius 75.4668
rwrist 18.2892
rhand -19.8004 23.2479
rfingers 7.12502
rthumb 6.53249 -6.63133
lclavicle 1.49089e-015 4.05521e-014
lhumerus -31.2362 -16.4365 99.2706
lradius 70.5416
lwrist -3.19115
lhand -28.2447 23.2242
lfingers 7.12502
lthumb -1.62221 53.1978
rfemur -29.8193 -21.8952 12.7113
rtibia 97.1721
rfoot 8.62085 4.35203
rtoes 1.58461
lfemur -26.4951 21.8026 -9.17207
ltibia 98.1693
lfoot 9.76492 -2.66311
ltoes -4.81983
704
root 0.718689 15.2388 15.6579 152.071 -78.8966 -181.49
lowerback 22.5979 2.2936 -0.0183011
upperback 12.7979 1.71947 3.91094
thorax 1.29018 0.131237 3.83836
lowerneck -20.0278 5.68472 -8.5661
upperneck 18.0164 9.96408 1.52789
head 8.40498 4.22062 3.12763
rclavicle 5.86415e-015 1.74931e-014
rhumerus -31.2225 21.0748 -88.7849
rradius 75.4673
rwrist 17.5396
rhand -20.2799 22.9452
rfingers 7.12502
rthumb 6.06957 -6.94783
lclavicle 5.86415e-015 1.74931e-014
lhumerus -31.1128 -17.5354 99.272
lradius 70.2199
lwrist -2.56151
lhand -28.5215 23.3332
lfingers 7.12502
lthumb -1.88959 53.3046
rfemur -29.7293 -21.9063 12.5621
rtibia 97.2582
rfoot 8.17939 4.63495
rtoes 1.83019
lfemur -26.448 21.5932 -9.078
ltibia 98.1529
lfoot 9.99764 -2.96768
ltoes -3.72411
705
root 0.706664 15.2383 15.6578 152.56 -78.8119 -181.996
lowerback 22.4928 2.37654 0.0207453
upperback 12.8965 1.82157 3.88345
thorax 1.44596 0.180453 3.76658
lowerneck -20.0463 5.99881 -8.20957
upperneck 18.005 10.3619 1.19783
head 8.42143 4.39418 3.00913
rclavicle -1.6201e-014 -4.6118e-014
rhumerus -31.216 21.5031 -88.3223
rradius 75.6898
rwrist 16.3376
rhand -20.6284 22.688
rfingers 7.12502
rthumb 5.73314 -7.21444
lclavicle -1.6201e-014 -4.6118e-014
lhumerus -30.9225 -18.4787 99.1447
lradius 69.883
lwrist -2.14061
lhand -28.6579 23.1182
lfingers 7.12502
lthumb -2.02132 53.0883
rfemur -29.6971 -21.8502 12.3483
rtibia 97.3574
rfoot 7.90952 5.00593
rtoes 1.6699
lfemur -26.3838 21.6347 -9.10012
ltibia 98.1267
lfoot 10.1516 -3.22869
ltoes -3.58019
706
root 0.696209 15.239 15.6516 152.541 -78.7141 -182.001
lowerback 22.4287 2.50392 0.185606
upperback 12.9593 2.01256 3.85544
thorax 1.54091 0.285279 3.60384
lowerneck -19.7644 6.28567 -7.63924
upperneck 17.8053 10.6568 0.706331
head 8.35147 4.52786 2.7751
rclavicle -2.59414e-014 -1.82882e-014
rhumerus -31.2527 22.3706 -87.4085
rradius 76.1649
rwrist 14.5549
rhand -21.038 22.3877
rfingers 7.12502
rthumb 5.33765 -7.52512
lclavicle -2.59414e-014 -1.82882e-014
lhumerus -30.807 -19.6093 99.013
lradius 69.5372
lwrist -1.81671
lhand -28.6845 22.7615
lfingers 7.12502
lthumb -2.04699 52.7314
rfemur -29.592 -21.6854 12.349
rtibia 97.4092
rfoot 7.47991 5.03219
rtoes 1.15625
lfemur -26.2643 21.6636 -9.06646
ltibia 98.0563
lfoot 10.2527 -3.51924
ltoes -4.69056
707
root 0.686036 15.2377 15.6478 152.997 -78.7851 -182.479
lowerback 22.3793 2.60124 0.175448
upperback 13.0014 2.13631 3.83368
thorax 1.60404 0.347938 3.56162
lowerneck -19.5452 6.51238 -7.24092
upperneck 17.7096 10.8882 0.422217
head 8.31034 4.63873 2.63515
rclavicle 2.27608e-014 5.00937e-014
rhumerus -31.4536 23.3174 -86.9561
rradius 76.5301
rwrist 13.3953
rhand -21.4818 22.2041
rfingers 7.12502
rthumb 4.90912 -7.71901
lclavicle 2.27608e-014 5.00937e-014
lhumerus -30.7649 -20.739 98.9075
lradius 69.3138
lwrist -1.49211
lhand -28.8618 22.4622
lfingers 7.12502
lthumb -2.21827 52.4305
rfemur -29.4853 -21.7835 12.1292
rtibia 97.4756
rfoot 7.09795 5.06349
rtoes 0.903991
lfemur -26.2061 21.499 -9.29366
ltibia 97.9852
lfoot 10.3584 -3.59072
ltoes -5.75002
708
root 0.678204 15.2362 15.6474 153.309 -78.8295 -182.729
lowerback 22.2334 2.52859 0.0118546
upperback 13.0486 2.00238 3.92769
thorax 1.7279 0.262773 3.78642
lowerneck -19.5116 6.89319 -7.46782
upperneck 17.7172 11.479 0.373369
head 8.27247 4.89584 2.71598
rclavicle 4.27387e-015 -2.38542e-014
rhumerus -31.4572 23.1777 -87.1703
rradius 76.3055
rwrist 14.1372
rhand -21.1765 22.5178
rfingers 7.12502
rthumb 5.20397 -7.39826
lclavicle 4.27387e-015 -2.38542e-014
lhumerus -30.6815 -21.1629 98.8866
lradius 69.1953
lwrist -1.38875
lhand -29.4376 22.6805
lfingers 7.12502
lthumb -2.77429 52.6422
rfemur -29.5551 -21.9628 11.9843
rtibia 97.5475
rfoot 6.90951 5.11692
rtoes 0.376917
lfemur -26.3161 21.3789 -9.4326
ltibia 97.9788
lfoot 10.5035 -3.43398
ltoes -5.44387
